<svg version="1.0" xmlns="http://www.w3.org/2000/svg"  width="300.000000pt" height="300.000000pt" viewBox="0 0 300.000000 300.000000"  preserveAspectRatio="xMidYMid meet">  <g transform="translate(0.000000,300.000000) scale(0.100000,-0.100000)" fill="#000000" stroke="none"> <path d="M1497 2646 c-87 -24 -137 -97 -140 -202 -3 -151 14 -264 48 -314 59 -86 43 -136 -59 -185 -75 -36 -175 -65 -222 -65 -52 0 -88 -32 -132 -119 -33 -64 -44 -98 -52 -168 -25 -198 -100 -331 -308 -546 -44 -45 -49 -47 -87 -42 -44 7 -95 -8 -95 -26 0 -7 7 -20 16 -30 15 -17 14 -25 -20 -108 -45 -111 -40 -131 28 -131 38 0 54 7 114 55 39 30 73 55 75 55 3 0 5 -15 5 -32 1 -69 57 -178 91 -178 10 0 46 -25 80 -55 58 -51 72 -60 95 -56 5 1 46 -17 92 -39 147 -71 225 -65 373 30 50 31 105 63 123 69 18 7 65 26 103 43 53 24 93 33 167 39 97 8 157 26 190 56 25 23 23 27 -25 67 l-43 35 -43 -15 c-24 -8 -89 -18 -145 -23 -78 -6 -116 -14 -161 -35 -76 -34 -110 -35 -215 -2 -78 25 -96 27 -220 24 -124 -3 -135 -2 -138 16 -2 10 0 22 6 28 5 5 69 12 143 15 125 5 139 3 214 -21 100 -32 126 -32 195 0 41 20 81 28 159 35 57 4 128 16 158 25 l53 17 0 54 c0 30 -7 68 -16 85 -13 24 -15 46 -10 99 7 71 36 203 62 283 l16 48 44 -88 c24 -49 44 -96 44 -105 0 -9 16 -48 35 -87 39 -77 102 -142 179 -182 25 -14 46 -29 46 -34 0 -4 -44 -6 -97 -4 l-98 5 -88 -45 -88 -46 28 -23 c18 -14 35 -21 48 -17 11 3 41 8 67 11 52 6 78 -7 78 -38 0 -20 -4 -22 -65 -23 -35 -1 -40 -4 -43 -26 -10 -90 -123 -149 -285 -150 -42 0 -72 -7 -110 -26 -28 -15 -75 -35 -104 -45 -46 -16 -218 -117 -211 -124 2 -2 35 3 73 11 97 18 153 17 275 -6 225 -43 297 -38 375 30 25 22 67 52 93 66 26 15 65 44 87 65 22 21 57 45 77 54 45 18 87 92 97 167 l6 47 66 -54 c70 -57 122 -75 158 -56 29 16 27 46 -9 129 -35 82 -36 89 -13 114 16 17 16 20 0 35 -12 12 -34 17 -77 18 -68 0 -57 -9 -189 145 -53 61 -108 138 -131 182 -45 86 -80 207 -80 278 0 35 -11 69 -46 139 -53 107 -76 125 -164 134 -67 7 -205 57 -245 89 -52 41 -52 94 1 170 25 36 28 51 37 186 11 169 4 212 -44 267 -21 23 -48 40 -82 50 -59 18 -58 18 -120 1z m154 -43 c51 -31 64 -67 66 -193 2 -146 -10 -224 -44 -273 -16 -23 -28 -56 -31 -87 -4 -47 -2 -52 31 -84 45 -42 172 -96 257 -108 99 -15 110 -23 157 -118 35 -69 44 -99 48 -158 12 -157 68 -270 231 -467 14 -17 28 -35 32 -40 4 -6 31 -32 60 -58 49 -45 55 -48 100 -45 l47 3 -3 -41 c-2 -28 5 -61 22 -102 14 -34 26 -71 26 -83 0 -19 -4 -21 -35 -16 -19 3 -61 25 -92 50 -32 24 -65 46 -75 50 -23 8 -44 -21 -50 -68 -9 -64 -34 -114 -65 -127 -15 -7 -53 -33 -83 -58 -30 -26 -75 -58 -100 -72 -25 -15 -63 -42 -85 -62 -51 -46 -101 -60 -190 -52 -78 7 -81 7 -217 31 -53 10 -116 15 -138 13 -41 -4 -42 -4 -20 14 12 10 40 23 63 29 23 6 66 23 97 39 43 21 76 29 149 35 51 3 112 13 134 21 70 25 135 85 141 131 2 13 13 19 44 21 51 4 77 36 59 73 -23 45 -76 57 -154 33 -46 -13 -22 16 36 45 55 28 63 30 147 24 82 -5 91 -4 108 16 19 21 19 21 0 42 -10 12 -43 37 -72 56 -30 18 -65 46 -78 60 -32 35 -71 105 -79 145 -9 39 -93 210 -108 220 -43 27 -96 -131 -114 -338 -4 -53 -1 -84 11 -122 10 -28 16 -62 14 -74 -4 -28 -52 -47 -123 -48 -83 -1 -174 -19 -228 -46 -58 -30 -100 -29 -212 5 -38 11 -85 21 -102 21 l-33 0 0 55 c0 31 7 72 16 93 20 47 12 178 -18 302 -29 119 -54 165 -84 153 -14 -5 -87 -150 -104 -208 -17 -55 -63 -135 -97 -166 -15 -15 -54 -43 -86 -63 -69 -44 -79 -62 -46 -88 21 -18 33 -19 111 -13 88 7 89 7 143 -26 30 -18 55 -37 55 -41 0 -4 -17 -8 -38 -8 -73 0 -107 -55 -61 -101 19 -19 28 -20 108 -14 127 11 170 7 251 -20 95 -32 137 -31 220 5 40 18 86 30 112 30 40 1 129 12 206 26 32 6 72 -15 72 -38 0 -19 -74 -39 -163 -45 -76 -5 -105 -12 -164 -39 -40 -19 -77 -34 -82 -34 -18 0 -85 -34 -144 -73 -162 -107 -245 -112 -411 -23 -27 14 -58 26 -70 26 -12 1 -43 21 -71 46 -27 26 -65 53 -83 61 -38 16 -66 69 -77 145 -11 74 -48 72 -137 -10 -29 -27 -118 -44 -118 -23 0 7 14 44 31 84 24 56 29 81 24 111 l-6 38 43 -4 c58 -6 84 9 153 89 32 37 65 75 74 83 104 95 211 337 211 474 0 29 12 65 40 118 44 83 69 108 110 108 35 0 129 25 209 56 134 52 161 119 97 239 l-34 65 -1 156 c-2 151 -1 158 23 195 43 65 162 86 237 42z m-487 -1291 c13 -49 29 -130 36 -179 12 -84 11 -93 -9 -138 -17 -37 -20 -58 -15 -101 5 -41 4 -54 -6 -54 -7 0 -49 21 -94 48 l-81 47 -107 -3 c-64 -2 -108 1 -108 7 0 5 21 21 48 37 109 63 167 132 201 237 29 89 94 219 103 203 4 -8 19 -54 32 -104z"/> </g> </svg>